<?xml version="1.0" standalone="no"?>
<!DOCTYPE svg PUBLIC "-//W3C//DTD SVG 20010904//EN"
 "http://www.w3.org/TR/2001/REC-SVG-20010904/DTD/svg10.dtd">
<svg version="1.0" xmlns="http://www.w3.org/2000/svg"
 width="3840.000000pt" height="3840.000000pt" viewBox="0 0 3840.000000 3840.000000"
 preserveAspectRatio="xMidYMid meet">

<g transform="translate(0.000000,3840.000000) scale(0.100000,-0.100000)"
fill="#000000" stroke="none">
<path d="M28800 20964 c-25 -2 -103 -9 -175 -14 -2059 -170 -3669 -1258 -4343
-2935 -258 -643 -368 -1330 -334 -2082 13 -297 31 -481 67 -713 240 -1552
1077 -2704 2646 -3642 528 -317 948 -521 1999 -973 1415 -608 1831 -808 2231
-1071 558 -367 831 -763 898 -1304 18 -140 14 -373 -9 -503 -56 -327 -196
-594 -439 -837 -227 -226 -492 -385 -839 -504 -317 -108 -640 -161 -1047 -173
-541 -15 -1067 68 -1524 238 -671 251 -1242 703 -1760 1394 -82 109 -300 431
-366 539 -9 14 -140 -59 -945 -527 -514 -298 -1167 -677 -1450 -842 -283 -164
-523 -304 -532 -310 -16 -10 -9 -26 64 -161 316 -584 665 -1052 1132 -1520
399 -398 793 -706 1256 -981 965 -572 2036 -897 3330 -1009 249 -21 1007 -30
1280 -15 1371 77 2518 424 3443 1042 962 643 1600 1548 1881 2668 169 674 200
1502 85 2281 -240 1628 -1124 2788 -2899 3802 -593 339 -1072 567 -2286 1089
-905 388 -1248 548 -1564 730 -558 321 -866 638 -1004 1038 -117 337 -125 773
-20 1098 37 117 134 308 205 403 342 463 922 696 1620 651 316 -21 544 -68
779 -162 265 -105 490 -258 720 -489 206 -206 366 -415 542 -710 44 -74 87
-145 94 -157 14 -22 17 -20 221 111 642 411 2543 1632 2571 1651 l32 22 -101
169 c-406 676 -883 1229 -1424 1649 -661 514 -1482 848 -2430 989 -372 55
-573 68 -1085 71 -261 1 -495 1 -520 -1z"/>
<path d="M17300 14513 c0 -4105 -4 -6304 -10 -6393 -73 -977 -388 -1517 -1022
-1754 -191 -71 -407 -111 -701 -128 -438 -26 -786 36 -1112 196 -486 240 -836
643 -1349 1553 l-57 101 -302 -182 c-581 -352 -2483 -1504 -2559 -1550 l-78
-47 81 -162 c474 -946 1156 -1715 1991 -2246 1057 -670 2402 -971 3898 -870
1693 113 2994 738 3812 1832 602 805 934 1826 1008 3102 6 109 10 2452 10
6488 l0 6317 -1805 0 -1805 0 0 -6257z"/>
</g>
</svg>
